<?xml version="1.0" encoding="UTF-8" standalone="no"?>
<!DOCTYPE score-partwise PUBLIC "-//Recordare//DTD MusicXML 3.1 Partwise//EN" "http://www.musicxml.org/dtds/partwise.dtd">
<score-partwise version="3.1">
  <movement-title>Israel</movement-title>
  <identification>
    <creator type="composer">John (Johnny) E. Carisi
Arr. 6EQUJ5</creator>
    <creator type="arranger">ARRANGER</creator>
    <rights>©2017 Finmusic/effendi.me 12/13/2017</rights>
    <encoding>
      <software>Finale v25 for Windows</software>
      <encoding-date>2018-04-23</encoding-date>
      <supports attribute="new-system" element="print" type="yes" value="yes"/>
      <supports attribute="new-page" element="print" type="yes" value="yes"/>
      <supports element="accidental" type="yes"/>
      <supports element="beam" type="yes"/>
      <supports element="stem" type="yes"/>
    </encoding>
  </identification>
  <defaults>
    <scaling>
      <millimeters>7.0723</millimeters>
      <tenths>40</tenths>
    </scaling>
    <page-layout>
      <page-height>1580</page-height>
      <page-width>1221</page-width>
      <page-margins type="both">
        <left-margin>144</left-margin>
        <right-margin>72</right-margin>
        <top-margin>72</top-margin>
        <bottom-margin>72</bottom-margin>
      </page-margins>
    </page-layout>
    <system-layout>
      <system-margins>
        <left-margin>0</left-margin>
        <right-margin>0</right-margin>
      </system-margins>
      <system-distance>128</system-distance>
      <top-system-distance>38</top-system-distance>
    </system-layout>
    <appearance>
      <line-width type="stem">1.4583</line-width>
      <line-width type="beam">5</line-width>
      <line-width type="staff">1.4583</line-width>
      <line-width type="light barline">1.4583</line-width>
      <line-width type="heavy barline">5</line-width>
      <line-width type="leger">1.7513</line-width>
      <line-width type="ending">1.4583</line-width>
      <line-width type="wedge">1.4583</line-width>
      <line-width type="enclosure">1.4583</line-width>
      <line-width type="tuplet bracket">1.4583</line-width>
      <note-size type="grace">60</note-size>
      <note-size type="cue">60</note-size>
      <distance type="hyphen">120</distance>
      <distance type="beam">8</distance>
    </appearance>
    <music-font font-family="Broadway Copyist,handwritten" font-size="20"/>
    <word-font font-family="Broadway Copyist Text" font-size="11.7"/>
  </defaults>
  <credit page="1">
    <credit-type>title</credit-type>
    <credit-words default-x="646" default-y="1514" font-size="28" justify="center" valign="top">Israel</credit-words>
  </credit>
  <credit page="1">
    <credit-type>composer</credit-type>
    <credit-words default-x="1162" default-y="1531" font-size="14" justify="right" valign="top" xml:space="preserve">John (Johnny) E. Carisi
Arr. 6EQUJ5</credit-words>
  </credit>
  <credit page="1">
    <credit-type>rights</credit-type>
    <credit-words default-x="647" default-y="54" font-size="10" halign="center" valign="bottom">©2017 Finmusic/effendi.me 12/13/2017</credit-words>
  </credit>
  <credit page="1">
    <credit-words default-x="45" default-y="1547" font-size="14" valign="top">C Lead Sheet</credit-words>
  </credit>
  <part-list>
    <score-part id="P1">
      <part-name print-object="no">MusicXML Part</part-name>
      <score-instrument id="P1-I1">
        <instrument-name>SmartMusic SoftSynth 1</instrument-name>
      </score-instrument>
      <midi-instrument id="P1-I1">
        <midi-channel>1</midi-channel>
        <midi-bank>15489</midi-bank>
        <midi-program>1</midi-program>
        <volume>80</volume>
        <pan>0</pan>
      </midi-instrument>
    </score-part>
  </part-list>
  <!--=========================================================-->
  <part id="P1">
    <measure number="1" width="350">
      <print>
        <system-layout>
          <system-margins>
            <left-margin>72</left-margin>
            <right-margin>0</right-margin>
          </system-margins>
          <top-system-distance>136</top-system-distance>
        </system-layout>
        <measure-numbering>system</measure-numbering>
      </print>
      <attributes>
        <divisions>24</divisions>
        <key>
          <fifths>-3</fifths>
          <mode>major</mode>
        </key>
        <time>
          <beats>4</beats>
          <beat-type>4</beat-type>
        </time>
        <clef>
          <sign>G</sign>
          <line>2</line>
        </clef>
      </attributes>
      <sound tempo="170"/>
      <direction placement="above">
        <direction-type>
          <rehearsal default-x="0" default-y="33" enclosure="none" font-size="15">Intro</rehearsal>
        </direction-type>
      </direction>
      <note default-x="136">
        <pitch>
          <step>D</step>
          <octave>5</octave>
        </pitch>
        <duration>12</duration>
        <voice>1</voice>
        <type>eighth</type>
        <stem default-y="-45">down</stem>
        <beam number="1">begin</beam>
      </note>
      <note default-x="164">
        <pitch>
          <step>E</step>
          <alter>-1</alter>
          <octave>5</octave>
        </pitch>
        <duration>12</duration>
        <voice>1</voice>
        <type>eighth</type>
        <stem default-y="-43">down</stem>
        <beam number="1">continue</beam>
      </note>
      <note default-x="192">
        <pitch>
          <step>F</step>
          <octave>5</octave>
        </pitch>
        <duration>12</duration>
        <voice>1</voice>
        <type>eighth</type>
        <stem default-y="-42">down</stem>
        <beam number="1">continue</beam>
      </note>
      <note default-x="220">
        <pitch>
          <step>C</step>
          <octave>6</octave>
        </pitch>
        <duration>12</duration>
        <voice>1</voice>
        <type>eighth</type>
        <stem default-y="-40">down</stem>
        <beam number="1">end</beam>
      </note>
      <note default-x="248">
        <pitch>
          <step>B</step>
          <alter>-1</alter>
          <octave>5</octave>
        </pitch>
        <duration>12</duration>
        <voice>1</voice>
        <type>eighth</type>
        <stem default-y="-20">down</stem>
        <beam number="1">begin</beam>
      </note>
      <note default-x="276">
        <pitch>
          <step>G</step>
          <octave>5</octave>
        </pitch>
        <duration>12</duration>
        <voice>1</voice>
        <type>eighth</type>
        <stem default-y="-22">down</stem>
        <beam number="1">end</beam>
      </note>
      <note default-x="304">
        <pitch>
          <step>F</step>
          <octave>5</octave>
        </pitch>
        <duration>24</duration>
        <tie type="start"/>
        <voice>1</voice>
        <type>quarter</type>
        <stem default-y="-36">down</stem>
        <notations>
          <tied type="start"/>
        </notations>
      </note>
    </measure>
    <!--=======================================================-->
    <measure number="2" width="132">
      <harmony default-y="40" font-size="15">
        <root>
          <root-step>C</root-step>
        </root>
        <kind halign="center" text="">major</kind>
        <offset>24</offset>
      </harmony>
      <note default-x="13">
        <pitch>
          <step>F</step>
          <octave>5</octave>
        </pitch>
        <duration>96</duration>
        <tie type="stop"/>
        <voice>1</voice>
        <type>whole</type>
        <notations>
          <tied type="stop"/>
        </notations>
      </note>
    </measure>
    <!--=======================================================-->
    <measure number="3" width="232">
      <harmony default-y="40" font-size="15">
        <root>
          <root-step>F</root-step>
        </root>
        <kind halign="center" text="">major</kind>
      </harmony>
      <note default-x="14">
        <rest/>
        <duration>48</duration>
        <voice>1</voice>
        <type>half</type>
      </note>
      <note default-x="100">
        <pitch>
          <step>G</step>
          <octave>5</octave>
        </pitch>
        <duration>12</duration>
        <voice>1</voice>
        <type>eighth</type>
        <stem default-y="-45">down</stem>
        <beam number="1">begin</beam>
      </note>
      <note default-x="133">
        <pitch>
          <step>G</step>
          <alter>-1</alter>
          <octave>5</octave>
        </pitch>
        <duration>12</duration>
        <voice>1</voice>
        <type>eighth</type>
        <accidental>flat</accidental>
        <stem default-y="-47">down</stem>
        <beam number="1">continue</beam>
      </note>
      <note default-x="165">
        <pitch>
          <step>E</step>
          <alter>-1</alter>
          <octave>5</octave>
        </pitch>
        <duration>12</duration>
        <voice>1</voice>
        <type>eighth</type>
        <stem default-y="-48">down</stem>
        <beam number="1">continue</beam>
      </note>
      <note default-x="198">
        <pitch>
          <step>C</step>
          <alter>-1</alter>
          <octave>5</octave>
        </pitch>
        <duration>12</duration>
        <tie type="start"/>
        <voice>1</voice>
        <type>eighth</type>
        <accidental>flat</accidental>
        <stem default-y="-50">down</stem>
        <beam number="1">end</beam>
        <notations>
          <tied type="start"/>
        </notations>
      </note>
    </measure>
    <!--=======================================================-->
    <measure number="4" width="220">
      <note default-x="14">
        <pitch>
          <step>C</step>
          <alter>-1</alter>
          <octave>5</octave>
        </pitch>
        <duration>24</duration>
        <tie type="stop"/>
        <voice>1</voice>
        <type>quarter</type>
        <stem default-y="-51">down</stem>
        <notations>
          <tied type="stop"/>
        </notations>
      </note>
      <note default-x="63">
        <pitch>
          <step>G</step>
          <octave>5</octave>
        </pitch>
        <duration>12</duration>
        <voice>1</voice>
        <type>eighth</type>
        <stem default-y="-30">down</stem>
        <beam number="1">begin</beam>
      </note>
      <note default-x="93">
        <pitch>
          <step>G</step>
          <alter>-1</alter>
          <octave>5</octave>
        </pitch>
        <duration>12</duration>
        <voice>1</voice>
        <type>eighth</type>
        <accidental>flat</accidental>
        <stem default-y="-30">down</stem>
        <beam number="1">end</beam>
      </note>
      <note default-x="124">
        <pitch>
          <step>E</step>
          <alter>-1</alter>
          <octave>5</octave>
        </pitch>
        <duration>12</duration>
        <voice>1</voice>
        <type>eighth</type>
        <stem default-y="-41">down</stem>
      </note>
      <note default-x="154">
        <pitch>
          <step>C</step>
          <alter>-1</alter>
          <octave>5</octave>
        </pitch>
        <duration>36</duration>
        <voice>1</voice>
        <type>quarter</type>
        <dot/>
        <accidental>flat</accidental>
        <stem default-y="-51">down</stem>
      </note>
    </measure>
    <!--=======================================================-->
    <measure number="5" width="338">
      <print new-system="yes">
        <system-layout>
          <system-distance>113</system-distance>
        </system-layout>
      </print>
      <harmony default-y="40" font-size="15">
        <root>
          <root-step>C</root-step>
        </root>
        <kind halign="center" text="">major</kind>
      </harmony>
      <note default-x="99">
        <pitch>
          <step>D</step>
          <octave>5</octave>
        </pitch>
        <duration>12</duration>
        <voice>1</voice>
        <type>eighth</type>
        <stem default-y="-45">down</stem>
        <beam number="1">begin</beam>
      </note>
      <note default-x="129">
        <pitch>
          <step>E</step>
          <alter>-1</alter>
          <octave>5</octave>
        </pitch>
        <duration>12</duration>
        <voice>1</voice>
        <type>eighth</type>
        <stem default-y="-43">down</stem>
        <beam number="1">continue</beam>
      </note>
      <note default-x="159">
        <pitch>
          <step>F</step>
          <octave>5</octave>
        </pitch>
        <duration>12</duration>
        <voice>1</voice>
        <type>eighth</type>
        <stem default-y="-41.5">down</stem>
        <beam number="1">continue</beam>
      </note>
      <note default-x="189">
        <pitch>
          <step>C</step>
          <octave>6</octave>
        </pitch>
        <duration>12</duration>
        <voice>1</voice>
        <type>eighth</type>
        <stem default-y="-40">down</stem>
        <beam number="1">end</beam>
      </note>
      <note default-x="218">
        <pitch>
          <step>B</step>
          <alter>-1</alter>
          <octave>5</octave>
        </pitch>
        <duration>12</duration>
        <voice>1</voice>
        <type>eighth</type>
        <stem default-y="-35">down</stem>
        <beam number="1">begin</beam>
      </note>
      <note default-x="248">
        <pitch>
          <step>G</step>
          <octave>5</octave>
        </pitch>
        <duration>12</duration>
        <voice>1</voice>
        <type>eighth</type>
        <stem default-y="-35">down</stem>
        <beam number="1">continue</beam>
      </note>
      <note default-x="278">
        <pitch>
          <step>F</step>
          <octave>5</octave>
        </pitch>
        <duration>12</duration>
        <voice>1</voice>
        <type>eighth</type>
        <stem default-y="-35">down</stem>
        <beam number="1">continue</beam>
      </note>
      <note default-x="307">
        <pitch>
          <step>C</step>
          <octave>6</octave>
        </pitch>
        <duration>12</duration>
        <voice>1</voice>
        <type>eighth</type>
        <stem default-y="-35">down</stem>
        <beam number="1">end</beam>
      </note>
    </measure>
    <!--=======================================================-->
    <measure number="6" width="258">
      <note default-x="17">
        <pitch>
          <step>B</step>
          <alter>-1</alter>
          <octave>5</octave>
        </pitch>
        <duration>12</duration>
        <voice>1</voice>
        <type>eighth</type>
        <stem default-y="-35">down</stem>
        <beam number="1">begin</beam>
      </note>
      <note default-x="48">
        <pitch>
          <step>G</step>
          <octave>5</octave>
        </pitch>
        <duration>12</duration>
        <voice>1</voice>
        <type>eighth</type>
        <stem default-y="-35">down</stem>
        <beam number="1">continue</beam>
      </note>
      <note default-x="77">
        <pitch>
          <step>F</step>
          <octave>5</octave>
        </pitch>
        <duration>12</duration>
        <voice>1</voice>
        <type>eighth</type>
        <stem default-y="-35">down</stem>
        <beam number="1">continue</beam>
      </note>
      <note default-x="107">
        <pitch>
          <step>C</step>
          <octave>6</octave>
        </pitch>
        <duration>12</duration>
        <voice>1</voice>
        <type>eighth</type>
        <stem default-y="-35">down</stem>
        <beam number="1">end</beam>
      </note>
      <note default-x="137">
        <pitch>
          <step>B</step>
          <alter>-1</alter>
          <octave>5</octave>
        </pitch>
        <duration>12</duration>
        <voice>1</voice>
        <type>eighth</type>
        <stem default-y="-35">down</stem>
        <beam number="1">begin</beam>
      </note>
      <note default-x="167">
        <pitch>
          <step>G</step>
          <octave>5</octave>
        </pitch>
        <duration>12</duration>
        <voice>1</voice>
        <type>eighth</type>
        <stem default-y="-35">down</stem>
        <beam number="1">continue</beam>
      </note>
      <note default-x="197">
        <pitch>
          <step>F</step>
          <octave>5</octave>
        </pitch>
        <duration>12</duration>
        <voice>1</voice>
        <type>eighth</type>
        <stem default-y="-35">down</stem>
        <beam number="1">continue</beam>
      </note>
      <note default-x="227">
        <pitch>
          <step>G</step>
          <octave>5</octave>
        </pitch>
        <duration>12</duration>
        <voice>1</voice>
        <type>eighth</type>
        <stem default-y="-35">down</stem>
        <beam number="1">end</beam>
      </note>
    </measure>
    <!--=======================================================-->
    <measure number="7" width="192">
      <direction placement="above">
        <direction-type>
          <bracket default-y="24" line-end="down" line-type="solid" number="1" type="start"/>
        </direction-type>
      </direction>
      <note default-x="14">
        <rest/>
        <duration>12</duration>
        <voice>1</voice>
        <type>eighth</type>
      </note>
      <note default-x="46">
        <pitch>
          <step>G</step>
          <octave>5</octave>
        </pitch>
        <duration>12</duration>
        <tie type="start"/>
        <voice>1</voice>
        <type>eighth</type>
        <stem default-y="-30.5">down</stem>
        <notations>
          <tied type="start"/>
        </notations>
      </note>
      <note default-x="80">
        <pitch>
          <step>G</step>
          <octave>5</octave>
        </pitch>
        <duration>72</duration>
        <tie type="stop"/>
        <voice>1</voice>
        <type>half</type>
        <dot/>
        <stem default-y="-30.5">down</stem>
        <notations>
          <tied type="stop"/>
        </notations>
      </note>
    </measure>
    <!--=======================================================-->
    <measure number="8" width="218">
      <direction placement="above">
        <direction-type>
          <rehearsal default-x="0" default-y="33" enclosure="none" font-size="15">Fill</rehearsal>
        </direction-type>
      </direction>
      <note default-x="14">
        <pitch>
          <step>G</step>
          <octave>5</octave>
        </pitch>
        <duration>24</duration>
        <voice>1</voice>
        <type>quarter</type>
        <stem default-y="-30.5">down</stem>
      </note>
      <note default-x="64">
        <rest/>
        <duration>12</duration>
        <voice>1</voice>
        <type>eighth</type>
      </note>
      <note default-x="96">
        <pitch>
          <step>G</step>
          <octave>5</octave>
        </pitch>
        <duration>12</duration>
        <tie type="start"/>
        <voice>1</voice>
        <type>eighth</type>
        <stem default-y="-30.5">down</stem>
        <notations>
          <tied type="start"/>
        </notations>
      </note>
      <note default-x="130">
        <pitch>
          <step>G</step>
          <octave>5</octave>
        </pitch>
        <duration>48</duration>
        <tie type="stop"/>
        <voice>1</voice>
        <type>half</type>
        <stem default-y="-30.5">down</stem>
        <notations>
          <tied type="stop"/>
        </notations>
      </note>
      <direction placement="above">
        <direction-type>
          <bracket line-end="down" number="1" type="stop"/>
        </direction-type>
      </direction>
      <barline location="right">
        <bar-style>light-light</bar-style>
      </barline>
    </measure>
    <!--=======================================================-->
    <measure number="9" width="335">
      <print new-system="yes">
        <system-layout>
          <system-distance>113</system-distance>
        </system-layout>
      </print>
      <barline location="left">
        <bar-style>heavy-light</bar-style>
        <repeat direction="forward" winged="curved"/>
      </barline>
      <direction placement="above">
        <direction-type>
          <rehearsal default-x="0" default-y="33" enclosure="none" font-size="15">Head</rehearsal>
        </direction-type>
      </direction>
      <note default-x="119">
        <rest/>
        <duration>24</duration>
        <voice>1</voice>
        <type>quarter</type>
      </note>
      <harmony default-y="40" font-size="15">
        <root>
          <root-step>C</root-step>
        </root>
        <kind halign="center" text="min7">minor-seventh</kind>
      </harmony>
      <note default-x="166">
        <pitch>
          <step>F</step>
          <octave>5</octave>
        </pitch>
        <duration>12</duration>
        <voice>1</voice>
        <type>eighth</type>
        <stem default-y="-35">down</stem>
        <beam number="1">begin</beam>
      </note>
      <note default-x="195">
        <pitch>
          <step>G</step>
          <octave>5</octave>
        </pitch>
        <duration>12</duration>
        <voice>1</voice>
        <type>eighth</type>
        <stem default-y="-32.5">down</stem>
        <beam number="1">end</beam>
      </note>
      <note default-x="224">
        <pitch>
          <step>D</step>
          <octave>5</octave>
        </pitch>
        <duration>12</duration>
        <voice>1</voice>
        <type>eighth</type>
        <stem default-y="-46">down</stem>
      </note>
      <note default-x="253">
        <pitch>
          <step>C</step>
          <octave>5</octave>
        </pitch>
        <duration>24</duration>
        <voice>1</voice>
        <type>quarter</type>
        <stem default-y="-51">down</stem>
      </note>
      <note default-x="300">
        <pitch>
          <step>G</step>
          <octave>5</octave>
        </pitch>
        <duration>12</duration>
        <tie type="start"/>
        <voice>1</voice>
        <type>eighth</type>
        <stem default-y="-30.5">down</stem>
        <notations>
          <tied type="start"/>
        </notations>
      </note>
    </measure>
    <!--=======================================================-->
    <measure number="10" width="256">
      <harmony default-y="40" font-size="15">
        <root>
          <root-step>C</root-step>
        </root>
        <kind halign="center" text="min">minor</kind>
      </harmony>
      <note default-x="13">
        <pitch>
          <step>G</step>
          <octave>5</octave>
        </pitch>
        <duration>12</duration>
        <tie type="stop"/>
        <voice>1</voice>
        <type>eighth</type>
        <stem default-y="-30">down</stem>
        <beam number="1">begin</beam>
        <notations>
          <tied type="stop"/>
        </notations>
      </note>
      <note default-x="44">
        <pitch>
          <step>G</step>
          <octave>5</octave>
        </pitch>
        <duration>12</duration>
        <voice>1</voice>
        <type>eighth</type>
        <stem default-y="-30">down</stem>
        <beam number="1">end</beam>
      </note>
      <note default-x="74">
        <pitch>
          <step>F</step>
          <octave>5</octave>
        </pitch>
        <duration>8</duration>
        <voice>1</voice>
        <type>eighth</type>
        <time-modification>
          <actual-notes>3</actual-notes>
          <normal-notes>2</normal-notes>
        </time-modification>
        <stem default-y="-40">down</stem>
        <beam number="1">begin</beam>
        <notations>
          <tuplet number="1" placement="below" type="start"/>
        </notations>
      </note>
      <note default-x="97">
        <pitch>
          <step>E</step>
          <alter>-1</alter>
          <octave>5</octave>
        </pitch>
        <duration>8</duration>
        <voice>1</voice>
        <type>eighth</type>
        <time-modification>
          <actual-notes>3</actual-notes>
          <normal-notes>2</normal-notes>
        </time-modification>
        <stem default-y="-41.5">down</stem>
        <beam number="1">continue</beam>
      </note>
      <note default-x="120">
        <pitch>
          <step>D</step>
          <octave>5</octave>
        </pitch>
        <duration>8</duration>
        <voice>1</voice>
        <type>eighth</type>
        <time-modification>
          <actual-notes>3</actual-notes>
          <normal-notes>2</normal-notes>
        </time-modification>
        <stem default-y="-42.5">down</stem>
        <beam number="1">end</beam>
        <notations>
          <tuplet number="1" type="stop"/>
        </notations>
      </note>
      <note default-x="143">
        <pitch>
          <step>C</step>
          <octave>5</octave>
        </pitch>
        <duration>24</duration>
        <voice>1</voice>
        <type>quarter</type>
        <stem default-y="-51">down</stem>
      </note>
      <note default-x="192">
        <pitch>
          <step>B</step>
          <alter>-1</alter>
          <octave>4</octave>
        </pitch>
        <duration>12</duration>
        <voice>1</voice>
        <type>eighth</type>
        <stem default-y="15">up</stem>
        <beam number="1">begin</beam>
      </note>
      <note default-x="221">
        <pitch>
          <step>G</step>
          <octave>4</octave>
        </pitch>
        <duration>12</duration>
        <tie type="start"/>
        <voice>1</voice>
        <type>eighth</type>
        <stem default-y="10">up</stem>
        <beam number="1">end</beam>
        <notations>
          <tied type="start"/>
        </notations>
      </note>
    </measure>
    <!--=======================================================-->
    <measure number="11" width="203">
      <harmony default-y="40" font-size="15">
        <root>
          <root-step>C</root-step>
        </root>
        <kind halign="center" text="min6">minor-sixth</kind>
      </harmony>
      <note default-x="14">
        <pitch>
          <step>G</step>
          <octave>4</octave>
        </pitch>
        <duration>48</duration>
        <tie type="stop"/>
        <voice>1</voice>
        <type>half</type>
        <stem default-y="6">up</stem>
        <notations>
          <tied type="stop"/>
        </notations>
      </note>
      <note default-x="91">
        <pitch>
          <step>B</step>
          <alter>-1</alter>
          <octave>4</octave>
        </pitch>
        <duration>24</duration>
        <voice>1</voice>
        <type>quarter</type>
        <stem default-y="-56">down</stem>
      </note>
      <note default-x="139">
        <pitch>
          <step>D</step>
          <octave>5</octave>
        </pitch>
        <duration>12</duration>
        <voice>1</voice>
        <type>eighth</type>
        <stem default-y="-60">down</stem>
        <beam number="1">begin</beam>
      </note>
      <note default-x="168">
        <pitch>
          <step>G</step>
          <octave>4</octave>
        </pitch>
        <duration>12</duration>
        <tie type="start"/>
        <voice>1</voice>
        <type>eighth</type>
        <stem default-y="-65">down</stem>
        <beam number="1">end</beam>
        <notations>
          <tied type="start"/>
        </notations>
      </note>
    </measure>
    <!--=======================================================-->
    <measure number="12" width="212">
      <harmony default-y="40" font-size="15">
        <root>
          <root-step>C</root-step>
        </root>
        <kind halign="center" text="7">dominant</kind>
      </harmony>
      <note default-x="13">
        <pitch>
          <step>G</step>
          <octave>4</octave>
        </pitch>
        <duration>48</duration>
        <tie type="stop"/>
        <tie type="start"/>
        <voice>1</voice>
        <type>half</type>
        <stem default-y="6">up</stem>
        <notations>
          <tied type="stop"/>
          <tied type="start"/>
        </notations>
      </note>
      <note default-x="90">
        <pitch>
          <step>G</step>
          <octave>4</octave>
        </pitch>
        <duration>12</duration>
        <tie type="stop"/>
        <voice>1</voice>
        <type>eighth</type>
        <stem default-y="-65">down</stem>
        <beam number="1">begin</beam>
        <notations>
          <tied type="stop"/>
        </notations>
      </note>
      <note default-x="119">
        <pitch>
          <step>G</step>
          <octave>4</octave>
        </pitch>
        <duration>12</duration>
        <voice>1</voice>
        <type>eighth</type>
        <stem default-y="-65">down</stem>
        <beam number="1">continue</beam>
      </note>
      <note default-x="148">
        <pitch>
          <step>C</step>
          <octave>5</octave>
        </pitch>
        <duration>12</duration>
        <voice>1</voice>
        <type>eighth</type>
        <stem default-y="-65">down</stem>
        <beam number="1">continue</beam>
      </note>
      <note default-x="178">
        <pitch>
          <step>E</step>
          <alter>-1</alter>
          <octave>5</octave>
        </pitch>
        <duration>12</duration>
        <tie type="start"/>
        <voice>1</voice>
        <type>eighth</type>
        <stem default-y="-65">down</stem>
        <beam number="1">end</beam>
        <notations>
          <tied type="start"/>
        </notations>
      </note>
    </measure>
    <!--=======================================================-->
    <measure number="13" width="286">
      <print new-system="yes">
        <system-layout>
          <system-distance>113</system-distance>
        </system-layout>
      </print>
      <harmony default-y="40" font-size="15">
        <root>
          <root-step>F</root-step>
        </root>
        <kind halign="center" text="min7">minor-seventh</kind>
      </harmony>
      <note default-x="103">
        <pitch>
          <step>E</step>
          <alter>-1</alter>
          <octave>5</octave>
        </pitch>
        <duration>12</duration>
        <tie type="stop"/>
        <voice>1</voice>
        <type>eighth</type>
        <stem default-y="-41">down</stem>
        <notations>
          <tied type="stop"/>
        </notations>
      </note>
      <note default-x="135">
        <pitch>
          <step>F</step>
          <octave>5</octave>
        </pitch>
        <duration>36</duration>
        <voice>1</voice>
        <type>quarter</type>
        <dot/>
        <stem default-y="-36">down</stem>
      </note>
      <note default-x="200">
        <rest/>
        <duration>48</duration>
        <voice>1</voice>
        <type>half</type>
      </note>
    </measure>
    <!--=======================================================-->
    <measure number="14" width="285">
      <harmony default-y="40" font-size="15">
        <root>
          <root-step>F</root-step>
        </root>
        <kind halign="center" text="min6">minor-sixth</kind>
      </harmony>
      <note default-x="14">
        <rest/>
        <duration>12</duration>
        <voice>1</voice>
        <type>eighth</type>
      </note>
      <note default-x="48">
        <pitch>
          <step>F</step>
          <octave>5</octave>
        </pitch>
        <duration>12</duration>
        <voice>1</voice>
        <type>eighth</type>
        <stem default-y="-36">down</stem>
      </note>
      <note default-x="82">
        <pitch>
          <step>E</step>
          <alter>-1</alter>
          <octave>5</octave>
        </pitch>
        <duration>8</duration>
        <voice>1</voice>
        <type>eighth</type>
        <time-modification>
          <actual-notes>3</actual-notes>
          <normal-notes>2</normal-notes>
        </time-modification>
        <stem default-y="-45">down</stem>
        <beam number="1">begin</beam>
        <notations>
          <tuplet number="1" placement="below" type="start"/>
        </notations>
      </note>
      <note default-x="108">
        <pitch>
          <step>D</step>
          <octave>5</octave>
        </pitch>
        <duration>8</duration>
        <voice>1</voice>
        <type>eighth</type>
        <time-modification>
          <actual-notes>3</actual-notes>
          <normal-notes>2</normal-notes>
        </time-modification>
        <stem default-y="-47">down</stem>
        <beam number="1">continue</beam>
      </note>
      <note default-x="134">
        <pitch>
          <step>C</step>
          <octave>5</octave>
        </pitch>
        <duration>8</duration>
        <voice>1</voice>
        <type>eighth</type>
        <time-modification>
          <actual-notes>3</actual-notes>
          <normal-notes>2</normal-notes>
        </time-modification>
        <stem default-y="-50">down</stem>
        <beam number="1">end</beam>
        <notations>
          <tuplet number="1" type="stop"/>
        </notations>
      </note>
      <harmony default-y="40" font-size="15">
        <root>
          <root-step>G</root-step>
        </root>
        <kind halign="center" text="7">dominant</kind>
      </harmony>
      <note default-x="160">
        <pitch>
          <step>B</step>
          <alter>-1</alter>
          <octave>4</octave>
        </pitch>
        <duration>24</duration>
        <voice>1</voice>
        <type>quarter</type>
        <stem default-y="-56">down</stem>
      </note>
      <note default-x="215">
        <pitch>
          <step>D</step>
          <octave>5</octave>
        </pitch>
        <duration>12</duration>
        <voice>1</voice>
        <type>eighth</type>
        <stem default-y="-60">down</stem>
        <beam number="1">begin</beam>
      </note>
      <note default-x="249">
        <pitch>
          <step>G</step>
          <octave>4</octave>
        </pitch>
        <duration>12</duration>
        <tie type="start"/>
        <voice>1</voice>
        <type>eighth</type>
        <stem default-y="-65">down</stem>
        <beam number="1">end</beam>
        <notations>
          <tied type="start"/>
        </notations>
      </note>
    </measure>
    <!--=======================================================-->
    <measure number="15" width="237">
      <harmony default-y="40" font-size="15">
        <root>
          <root-step>C</root-step>
        </root>
        <kind halign="center" text="maj7">major-seventh</kind>
      </harmony>
      <note default-x="14">
        <pitch>
          <step>G</step>
          <octave>4</octave>
        </pitch>
        <duration>48</duration>
        <tie type="stop"/>
        <tie type="start"/>
        <voice>1</voice>
        <type>half</type>
        <stem default-y="6">up</stem>
        <notations>
          <tied type="stop"/>
          <tied type="start"/>
        </notations>
      </note>
      <note default-x="101">
        <pitch>
          <step>G</step>
          <octave>4</octave>
        </pitch>
        <duration>12</duration>
        <tie type="stop"/>
        <voice>1</voice>
        <type>eighth</type>
        <stem default-y="25">up</stem>
        <beam number="1">begin</beam>
        <notations>
          <tied type="stop"/>
        </notations>
      </note>
      <note default-x="135">
        <pitch>
          <step>D</step>
          <octave>5</octave>
        </pitch>
        <duration>12</duration>
        <voice>1</voice>
        <type>eighth</type>
        <stem default-y="25">up</stem>
        <beam number="1">continue</beam>
      </note>
      <note default-x="168">
        <pitch>
          <step>C</step>
          <octave>5</octave>
        </pitch>
        <duration>12</duration>
        <voice>1</voice>
        <type>eighth</type>
        <stem default-y="25">up</stem>
        <beam number="1">continue</beam>
      </note>
      <note default-x="202">
        <pitch>
          <step>D</step>
          <octave>4</octave>
        </pitch>
        <duration>12</duration>
        <tie type="start"/>
        <voice>1</voice>
        <type>eighth</type>
        <stem default-y="25">up</stem>
        <beam number="1">end</beam>
        <notations>
          <tied type="start"/>
        </notations>
      </note>
    </measure>
    <!--=======================================================-->
    <measure number="16" width="198">
      <harmony default-y="40" font-size="15">
        <root>
          <root-step>E</root-step>
          <root-alter>-1</root-alter>
        </root>
        <kind halign="center" text="maj7">major-seventh</kind>
      </harmony>
      <note default-x="14">
        <pitch>
          <step>D</step>
          <octave>4</octave>
        </pitch>
        <duration>36</duration>
        <tie type="stop"/>
        <voice>1</voice>
        <type>quarter</type>
        <dot/>
        <stem default-y="-9">up</stem>
        <notations>
          <tied type="stop"/>
        </notations>
      </note>
      <note default-x="80">
        <pitch>
          <step>G</step>
          <octave>5</octave>
        </pitch>
        <duration>36</duration>
        <voice>1</voice>
        <type>quarter</type>
        <dot/>
        <stem default-y="-31">down</stem>
      </note>
      <note default-x="146">
        <pitch>
          <step>F</step>
          <octave>5</octave>
        </pitch>
        <duration>24</duration>
        <voice>1</voice>
        <type>quarter</type>
        <stem default-y="-36">down</stem>
      </note>
    </measure>
    <!--=======================================================-->
    <measure number="17" width="302">
      <print new-system="yes">
        <system-layout>
          <system-distance>109</system-distance>
        </system-layout>
      </print>
      <harmony default-y="40" font-size="15">
        <root>
          <root-step>A</root-step>
          <root-alter>-1</root-alter>
        </root>
        <kind halign="center" text="maj7">major-seventh</kind>
      </harmony>
      <note default-x="99">
        <rest/>
        <duration>16</duration>
        <voice>1</voice>
        <type>quarter</type>
        <time-modification>
          <actual-notes>3</actual-notes>
          <normal-notes>2</normal-notes>
        </time-modification>
        <notations>
          <tuplet bracket="yes" number="1" type="start"/>
        </notations>
      </note>
      <note default-x="133">
        <pitch>
          <step>C</step>
          <octave>4</octave>
        </pitch>
        <duration>16</duration>
        <voice>1</voice>
        <type>quarter</type>
        <time-modification>
          <actual-notes>3</actual-notes>
          <normal-notes>2</normal-notes>
        </time-modification>
        <stem default-y="-14">up</stem>
      </note>
      <note default-x="166">
        <pitch>
          <step>F</step>
          <octave>4</octave>
        </pitch>
        <duration>16</duration>
        <voice>1</voice>
        <type>quarter</type>
        <time-modification>
          <actual-notes>3</actual-notes>
          <normal-notes>2</normal-notes>
        </time-modification>
        <stem default-y="1">up</stem>
        <notations>
          <tuplet number="1" type="stop"/>
        </notations>
      </note>
      <note default-x="200">
        <pitch>
          <step>B</step>
          <alter>-1</alter>
          <octave>4</octave>
        </pitch>
        <duration>16</duration>
        <voice>1</voice>
        <type>quarter</type>
        <time-modification>
          <actual-notes>3</actual-notes>
          <normal-notes>2</normal-notes>
        </time-modification>
        <stem default-y="-56">down</stem>
        <notations>
          <tuplet bracket="yes" number="1" type="start"/>
        </notations>
      </note>
      <note default-x="233">
        <pitch>
          <step>E</step>
          <alter>-1</alter>
          <octave>4</octave>
        </pitch>
        <duration>16</duration>
        <voice>1</voice>
        <type>quarter</type>
        <time-modification>
          <actual-notes>3</actual-notes>
          <normal-notes>2</normal-notes>
        </time-modification>
        <stem default-y="-4">up</stem>
      </note>
      <note default-x="267">
        <pitch>
          <step>A</step>
          <alter>-1</alter>
          <octave>4</octave>
        </pitch>
        <duration>16</duration>
        <voice>1</voice>
        <type>quarter</type>
        <time-modification>
          <actual-notes>3</actual-notes>
          <normal-notes>2</normal-notes>
        </time-modification>
        <stem default-y="11">up</stem>
        <notations>
          <tuplet number="1" type="stop"/>
        </notations>
      </note>
    </measure>
    <!--=======================================================-->
    <measure number="18" width="217">
      <harmony default-y="40" font-size="15">
        <root>
          <root-step>G</root-step>
        </root>
        <kind halign="center" text="7">dominant</kind>
      </harmony>
      <note default-x="25">
        <pitch>
          <step>D</step>
          <alter>-1</alter>
          <octave>5</octave>
        </pitch>
        <duration>36</duration>
        <voice>1</voice>
        <type>quarter</type>
        <dot/>
        <accidental>flat</accidental>
        <stem default-y="-46">down</stem>
      </note>
      <note default-x="85">
        <pitch>
          <step>B</step>
          <octave>4</octave>
        </pitch>
        <duration>24</duration>
        <voice>1</voice>
        <type>quarter</type>
        <accidental>natural</accidental>
        <stem default-y="-56">down</stem>
      </note>
      <note default-x="131">
        <pitch>
          <step>D</step>
          <octave>5</octave>
        </pitch>
        <duration>12</duration>
        <voice>1</voice>
        <type>eighth</type>
        <accidental>natural</accidental>
        <stem default-y="-46">down</stem>
      </note>
      <note default-x="159">
        <pitch>
          <step>E</step>
          <alter>-1</alter>
          <octave>5</octave>
        </pitch>
        <duration>12</duration>
        <voice>1</voice>
        <type>eighth</type>
        <stem default-y="-35">down</stem>
        <beam number="1">begin</beam>
      </note>
      <note default-x="187">
        <pitch>
          <step>F</step>
          <octave>5</octave>
        </pitch>
        <duration>12</duration>
        <voice>1</voice>
        <type>eighth</type>
        <stem default-y="-32">down</stem>
        <beam number="1">end</beam>
      </note>
    </measure>
    <!--=======================================================-->
    <measure number="19" width="203">
      <harmony default-y="40" font-size="15">
        <root>
          <root-step>C</root-step>
        </root>
        <kind halign="center" text="min7">minor-seventh</kind>
      </harmony>
      <note default-x="13">
        <pitch>
          <step>G</step>
          <octave>4</octave>
        </pitch>
        <duration>16</duration>
        <voice>1</voice>
        <type>quarter</type>
        <time-modification>
          <actual-notes>3</actual-notes>
          <normal-notes>2</normal-notes>
        </time-modification>
        <stem default-y="6">up</stem>
        <notations>
          <tuplet bracket="yes" number="1" type="start"/>
        </notations>
      </note>
      <note default-x="47">
        <pitch>
          <step>A</step>
          <alter>-1</alter>
          <octave>4</octave>
        </pitch>
        <duration>16</duration>
        <voice>1</voice>
        <type>quarter</type>
        <time-modification>
          <actual-notes>3</actual-notes>
          <normal-notes>2</normal-notes>
        </time-modification>
        <stem default-y="11">up</stem>
      </note>
      <note default-x="81">
        <pitch>
          <step>G</step>
          <octave>4</octave>
        </pitch>
        <duration>16</duration>
        <voice>1</voice>
        <type>quarter</type>
        <time-modification>
          <actual-notes>3</actual-notes>
          <normal-notes>2</normal-notes>
        </time-modification>
        <stem default-y="6">up</stem>
        <notations>
          <tuplet number="1" type="stop"/>
        </notations>
      </note>
      <harmony default-y="40" font-size="15">
        <root>
          <root-step>E</root-step>
          <root-alter>-1</root-alter>
        </root>
        <kind halign="center" text="7">dominant</kind>
      </harmony>
      <note default-x="115">
        <pitch>
          <step>F</step>
          <octave>5</octave>
        </pitch>
        <duration>36</duration>
        <voice>1</voice>
        <type>quarter</type>
        <dot/>
        <stem default-y="-36">down</stem>
      </note>
      <note default-x="174">
        <pitch>
          <step>E</step>
          <alter>-1</alter>
          <octave>5</octave>
        </pitch>
        <duration>12</duration>
        <voice>1</voice>
        <type>eighth</type>
        <stem default-y="-41">down</stem>
      </note>
    </measure>
    <!--=======================================================-->
    <measure number="20" width="283">
      <harmony default-y="40" font-size="15">
        <root>
          <root-step>A</root-step>
          <root-alter>-1</root-alter>
        </root>
        <kind halign="center" text="7">dominant</kind>
      </harmony>
      <note default-x="14">
        <pitch>
          <step>D</step>
          <octave>5</octave>
        </pitch>
        <duration>8</duration>
        <voice>1</voice>
        <type>eighth</type>
        <time-modification>
          <actual-notes>3</actual-notes>
          <normal-notes>2</normal-notes>
        </time-modification>
        <stem default-y="-45">down</stem>
        <beam number="1">begin</beam>
        <notations>
          <tuplet number="1" placement="below" type="start"/>
        </notations>
      </note>
      <note default-x="37">
        <pitch>
          <step>E</step>
          <alter>-1</alter>
          <octave>5</octave>
        </pitch>
        <duration>8</duration>
        <voice>1</voice>
        <type>eighth</type>
        <time-modification>
          <actual-notes>3</actual-notes>
          <normal-notes>2</normal-notes>
        </time-modification>
        <stem default-y="-45">down</stem>
        <beam number="1">continue</beam>
      </note>
      <note default-x="60">
        <pitch>
          <step>D</step>
          <octave>5</octave>
        </pitch>
        <duration>8</duration>
        <voice>1</voice>
        <type>eighth</type>
        <time-modification>
          <actual-notes>3</actual-notes>
          <normal-notes>2</normal-notes>
        </time-modification>
        <stem default-y="-45">down</stem>
        <beam number="1">end</beam>
        <notations>
          <tuplet number="1" type="stop"/>
        </notations>
      </note>
      <note default-x="92">
        <pitch>
          <step>F</step>
          <alter>1</alter>
          <octave>4</octave>
        </pitch>
        <duration>24</duration>
        <tie type="start"/>
        <voice>1</voice>
        <type>quarter</type>
        <accidental>sharp</accidental>
        <stem default-y="1">up</stem>
        <notations>
          <tied type="start"/>
        </notations>
      </note>
      <harmony default-y="40" font-size="15">
        <root>
          <root-step>G</root-step>
        </root>
        <kind halign="center" text="7">dominant</kind>
      </harmony>
      <note default-x="140">
        <pitch>
          <step>F</step>
          <alter>1</alter>
          <octave>4</octave>
        </pitch>
        <duration>12</duration>
        <tie type="stop"/>
        <voice>1</voice>
        <type>eighth</type>
        <stem default-y="15">up</stem>
        <beam number="1">begin</beam>
        <notations>
          <tied type="stop"/>
        </notations>
      </note>
      <note default-x="170">
        <pitch>
          <step>G</step>
          <octave>4</octave>
        </pitch>
        <duration>12</duration>
        <voice>1</voice>
        <type>eighth</type>
        <stem default-y="17">up</stem>
        <beam number="1">continue</beam>
      </note>
      <note default-x="205">
        <pitch>
          <step>B</step>
          <octave>4</octave>
        </pitch>
        <duration>12</duration>
        <voice>1</voice>
        <type>eighth</type>
        <accidental>natural</accidental>
        <stem default-y="18.5">up</stem>
        <beam number="1">continue</beam>
      </note>
      <note default-x="234">
        <pitch>
          <step>C</step>
          <octave>5</octave>
        </pitch>
        <duration>12</duration>
        <voice>1</voice>
        <type>eighth</type>
        <stem default-y="20">up</stem>
        <beam number="1">end</beam>
      </note>
      <barline location="right">
        <bar-style>light-heavy</bar-style>
        <repeat direction="backward" winged="curved"/>
      </barline>
    </measure>
  </part>
  <!--=========================================================-->
</score-partwise>
