<?xml version="1.0" encoding="UTF-8" standalone="no"?>
<!DOCTYPE score-partwise PUBLIC "-//Recordare//DTD MusicXML 3.1 Partwise//EN" "http://www.musicxml.org/dtds/partwise.dtd">
<score-partwise version="3.1">
  <movement-title>Bold and Black</movement-title>
  <identification>
    <creator type="composer">Eddie Harris
Arr 6EQUJ5</creator>
    <rights>V2
©2015 Finmusic/effendi.me
V1
©2014 Finmusic/effendi.me</rights>
    <encoding>
      <software>Finale v25 for Windows</software>
      <encoding-date>2018-04-23</encoding-date>
      <supports attribute="new-system" element="print" type="yes" value="yes"/>
      <supports attribute="new-page" element="print" type="yes" value="yes"/>
      <supports element="accidental" type="yes"/>
      <supports element="beam" type="yes"/>
      <supports element="stem" type="yes"/>
    </encoding>
  </identification>
  <defaults>
    <scaling>
      <millimeters>7.2319</millimeters>
      <tenths>40</tenths>
    </scaling>
    <page-layout>
      <page-height>1545</page-height>
      <page-width>1194</page-width>
      <page-margins type="both">
        <left-margin>140</left-margin>
        <right-margin>70</right-margin>
        <top-margin>88</top-margin>
        <bottom-margin>88</bottom-margin>
      </page-margins>
    </page-layout>
    <system-layout>
      <system-margins>
        <left-margin>0</left-margin>
        <right-margin>0</right-margin>
      </system-margins>
      <system-distance>121</system-distance>
      <top-system-distance>70</top-system-distance>
    </system-layout>
    <appearance>
      <line-width type="stem">1.4583</line-width>
      <line-width type="beam">5</line-width>
      <line-width type="staff">1.4583</line-width>
      <line-width type="light barline">1.4583</line-width>
      <line-width type="heavy barline">5</line-width>
      <line-width type="leger">1.7513</line-width>
      <line-width type="ending">1.4583</line-width>
      <line-width type="wedge">1.4583</line-width>
      <line-width type="enclosure">1.4583</line-width>
      <line-width type="tuplet bracket">1.4583</line-width>
      <note-size type="grace">60</note-size>
      <note-size type="cue">60</note-size>
      <distance type="hyphen">120</distance>
      <distance type="beam">8</distance>
    </appearance>
    <music-font font-family="Broadway Copyist,handwritten" font-size="20.5"/>
    <word-font font-family="Broadway Copyist Text" font-size="12"/>
  </defaults>
  <credit page="1">
    <credit-type>title</credit-type>
    <credit-words default-x="632" default-y="1440" font-size="28" justify="center" valign="top">Bold and Black</credit-words>
  </credit>
  <credit page="1">
    <credit-type>composer</credit-type>
    <credit-words default-x="1131" default-y="1430" font-size="14" justify="right" valign="top" xml:space="preserve">Eddie Harris
Arr 6EQUJ5</credit-words>
  </credit>
  <credit page="1">
    <credit-type>rights</credit-type>
    <credit-words default-x="632" default-y="70" font-size="10" justify="center" valign="bottom" xml:space="preserve">V2
©2015 Finmusic/effendi.me
V1
©2014 Finmusic/effendi.me</credit-words>
  </credit>
  <credit page="1">
    <credit-words default-x="64" default-y="1443" font-size="14" valign="top">Eb Lead Sheet</credit-words>
  </credit>
  <part-list>
    <score-part id="P1">
      <part-name print-object="no">MusicXML Part</part-name>
      <score-instrument id="P1-I1">
        <instrument-name>SmartMusic SoftSynth</instrument-name>
        <virtual-instrument/>
      </score-instrument>
      <midi-device>SmartMusic SoftSynth</midi-device>
      <midi-instrument id="P1-I1">
        <midi-channel>1</midi-channel>
        <midi-bank>15489</midi-bank>
        <midi-program>1</midi-program>
        <volume>80</volume>
        <pan>0</pan>
      </midi-instrument>
    </score-part>
  </part-list>
  <!--=========================================================-->
  <part id="P1">
    <measure number="1" width="228">
      <print>
        <system-layout>
          <system-margins>
            <left-margin>70</left-margin>
            <right-margin>0</right-margin>
          </system-margins>
          <top-system-distance>172</top-system-distance>
        </system-layout>
        <measure-numbering>system</measure-numbering>
      </print>
      <attributes>
        <divisions>24</divisions>
        <key>
          <fifths>2</fifths>
          <mode>major</mode>
        </key>
        <time>
          <beats>4</beats>
          <beat-type>4</beat-type>
        </time>
        <clef>
          <sign>G</sign>
          <line>2</line>
        </clef>
      </attributes>
      <sound tempo="150"/>
      <harmony default-y="40" font-size="15.4">
        <root>
          <root-step>G</root-step>
        </root>
        <kind halign="center" text="maj7">major-seventh</kind>
      </harmony>
      <note default-x="128">
        <pitch>
          <step>F</step>
          <alter>1</alter>
          <octave>5</octave>
        </pitch>
        <duration>96</duration>
        <voice>1</voice>
        <type>whole</type>
      </note>
    </measure>
    <!--=======================================================-->
    <measure number="2" width="128">
      <harmony default-y="40" font-size="15.4">
        <root>
          <root-step>F</root-step>
          <root-alter>1</root-alter>
        </root>
        <kind halign="center" text="min7">minor-seventh</kind>
      </harmony>
      <note default-x="14">
        <pitch>
          <step>F</step>
          <alter>1</alter>
          <octave>5</octave>
        </pitch>
        <duration>12</duration>
        <voice>1</voice>
        <type>eighth</type>
        <stem default-y="-35.5">down</stem>
      </note>
      <harmony default-y="40" font-size="15.4">
        <root>
          <root-step>B</root-step>
        </root>
        <kind halign="center" text="7">dominant</kind>
        <offset>12</offset>
      </harmony>
      <note default-x="38">
        <pitch>
          <step>A</step>
          <octave>5</octave>
        </pitch>
        <duration>84</duration>
        <voice>1</voice>
        <type>half</type>
        <dot/>
        <dot/>
        <stem default-y="-26">down</stem>
      </note>
    </measure>
    <!--=======================================================-->
    <measure number="3" width="203">
      <harmony default-y="40" font-size="15.4">
        <root>
          <root-step>E</root-step>
        </root>
        <kind halign="center" text="7">dominant</kind>
      </harmony>
      <note default-x="14">
        <pitch>
          <step>F</step>
          <alter>1</alter>
          <octave>5</octave>
        </pitch>
        <duration>12</duration>
        <voice>1</voice>
        <type>eighth</type>
        <stem default-y="-50">down</stem>
        <beam number="1">begin</beam>
      </note>
      <note default-x="37">
        <pitch>
          <step>E</step>
          <octave>5</octave>
        </pitch>
        <duration>12</duration>
        <voice>1</voice>
        <type>eighth</type>
        <stem default-y="-51.5">down</stem>
        <beam number="1">continue</beam>
      </note>
      <note default-x="60">
        <pitch>
          <step>D</step>
          <octave>5</octave>
        </pitch>
        <duration>12</duration>
        <voice>1</voice>
        <type>eighth</type>
        <stem default-y="-53">down</stem>
        <beam number="1">continue</beam>
      </note>
      <note default-x="84">
        <pitch>
          <step>B</step>
          <octave>4</octave>
        </pitch>
        <duration>12</duration>
        <voice>1</voice>
        <type>eighth</type>
        <stem default-y="-55">down</stem>
        <beam number="1">end</beam>
      </note>
      <note default-x="107">
        <pitch>
          <step>D</step>
          <octave>5</octave>
        </pitch>
        <duration>12</duration>
        <voice>1</voice>
        <type>eighth</type>
        <stem default-y="-46">down</stem>
      </note>
      <note default-x="131">
        <pitch>
          <step>E</step>
          <octave>5</octave>
        </pitch>
        <duration>24</duration>
        <voice>1</voice>
        <type>quarter</type>
        <stem default-y="-41">down</stem>
      </note>
      <note default-x="169">
        <pitch>
          <step>B</step>
          <octave>4</octave>
        </pitch>
        <duration>12</duration>
        <tie type="start"/>
        <voice>1</voice>
        <type>eighth</type>
        <stem default-y="-55.5">down</stem>
        <notations>
          <tied type="start"/>
        </notations>
      </note>
    </measure>
    <!--=======================================================-->
    <measure number="4" width="113">
      <harmony default-y="40" font-size="15.4">
        <root>
          <root-step>E</root-step>
        </root>
        <kind halign="center" text="7">dominant</kind>
      </harmony>
      <note default-x="14">
        <pitch>
          <step>B</step>
          <octave>4</octave>
        </pitch>
        <duration>96</duration>
        <tie type="stop"/>
        <voice>1</voice>
        <type>whole</type>
        <notations>
          <tied type="stop"/>
        </notations>
      </note>
    </measure>
    <!--=======================================================-->
    <measure number="5" width="113">
      <harmony default-y="40" font-size="15.4">
        <root>
          <root-step>G</root-step>
        </root>
        <kind halign="center" text="maj7">major-seventh</kind>
      </harmony>
      <note default-x="13">
        <pitch>
          <step>F</step>
          <alter>1</alter>
          <octave>5</octave>
        </pitch>
        <duration>96</duration>
        <voice>1</voice>
        <type>whole</type>
      </note>
    </measure>
    <!--=======================================================-->
    <measure number="6" width="127">
      <harmony default-y="40" font-size="15.4">
        <root>
          <root-step>F</root-step>
          <root-alter>1</root-alter>
        </root>
        <kind halign="center" text="min7">minor-seventh</kind>
      </harmony>
      <note default-x="14">
        <pitch>
          <step>F</step>
          <alter>1</alter>
          <octave>5</octave>
        </pitch>
        <duration>12</duration>
        <voice>1</voice>
        <type>eighth</type>
        <stem default-y="-35.5">down</stem>
      </note>
      <harmony default-y="40" font-size="15.4">
        <root>
          <root-step>B</root-step>
        </root>
        <kind halign="center" text="7">dominant</kind>
        <offset>12</offset>
      </harmony>
      <note default-x="37">
        <pitch>
          <step>A</step>
          <octave>5</octave>
        </pitch>
        <duration>84</duration>
        <voice>1</voice>
        <type>half</type>
        <dot/>
        <dot/>
        <stem default-y="-26">down</stem>
      </note>
    </measure>
    <!--=======================================================-->
    <measure number="7" width="295">
      <print new-system="yes">
        <system-layout>
          <system-distance>114</system-distance>
        </system-layout>
      </print>
      <harmony default-y="40" font-size="15.4">
        <root>
          <root-step>E</root-step>
        </root>
        <kind halign="center" text="7">dominant</kind>
      </harmony>
      <note default-x="91">
        <pitch>
          <step>F</step>
          <alter>1</alter>
          <octave>5</octave>
        </pitch>
        <duration>12</duration>
        <voice>1</voice>
        <type>eighth</type>
        <stem default-y="-50">down</stem>
        <beam number="1">begin</beam>
      </note>
      <note default-x="117">
        <pitch>
          <step>E</step>
          <octave>5</octave>
        </pitch>
        <duration>12</duration>
        <voice>1</voice>
        <type>eighth</type>
        <stem default-y="-51.5">down</stem>
        <beam number="1">continue</beam>
      </note>
      <note default-x="142">
        <pitch>
          <step>D</step>
          <octave>5</octave>
        </pitch>
        <duration>12</duration>
        <voice>1</voice>
        <type>eighth</type>
        <stem default-y="-53.5">down</stem>
        <beam number="1">continue</beam>
      </note>
      <note default-x="168">
        <pitch>
          <step>B</step>
          <octave>4</octave>
        </pitch>
        <duration>12</duration>
        <voice>1</voice>
        <type>eighth</type>
        <stem default-y="-55">down</stem>
        <beam number="1">end</beam>
      </note>
      <note default-x="194">
        <pitch>
          <step>D</step>
          <octave>5</octave>
        </pitch>
        <duration>12</duration>
        <voice>1</voice>
        <type>eighth</type>
        <stem default-y="-46">down</stem>
      </note>
      <note default-x="219">
        <pitch>
          <step>E</step>
          <octave>5</octave>
        </pitch>
        <duration>24</duration>
        <voice>1</voice>
        <type>quarter</type>
        <stem default-y="-41">down</stem>
      </note>
      <note default-x="261">
        <pitch>
          <step>F</step>
          <alter>1</alter>
          <octave>5</octave>
        </pitch>
        <duration>12</duration>
        <tie type="start"/>
        <voice>1</voice>
        <type>eighth</type>
        <stem default-y="-35.5">down</stem>
        <notations>
          <tied type="start"/>
        </notations>
      </note>
    </measure>
    <!--=======================================================-->
    <measure number="8" width="193">
      <harmony default-y="40" font-size="15.4">
        <root>
          <root-step>F</root-step>
          <root-alter>1</root-alter>
        </root>
        <kind halign="center" text="7">dominant</kind>
      </harmony>
      <note default-x="15">
        <pitch>
          <step>F</step>
          <alter>1</alter>
          <octave>5</octave>
        </pitch>
        <duration>48</duration>
        <tie type="stop"/>
        <voice>1</voice>
        <type>half</type>
        <stem default-y="-35.5">down</stem>
        <notations>
          <tied type="stop"/>
        </notations>
      </note>
      <note default-x="81">
        <rest/>
        <duration>12</duration>
        <voice>1</voice>
        <type>eighth</type>
      </note>
      <note default-x="108">
        <pitch>
          <step>D</step>
          <octave>5</octave>
        </pitch>
        <duration>12</duration>
        <voice>1</voice>
        <type>eighth</type>
        <stem default-y="-46">down</stem>
      </note>
      <note default-x="134">
        <pitch>
          <step>D</step>
          <octave>5</octave>
        </pitch>
        <duration>8</duration>
        <voice>1</voice>
        <type>eighth</type>
        <time-modification>
          <actual-notes>3</actual-notes>
          <normal-notes>2</normal-notes>
        </time-modification>
        <stem default-y="-55">down</stem>
        <beam number="1">begin</beam>
        <notations>
          <tuplet number="1" placement="below" type="start"/>
        </notations>
      </note>
      <note default-x="153">
        <pitch>
          <step>B</step>
          <octave>4</octave>
        </pitch>
        <duration>8</duration>
        <voice>1</voice>
        <type>eighth</type>
        <time-modification>
          <actual-notes>3</actual-notes>
          <normal-notes>2</normal-notes>
        </time-modification>
        <stem default-y="-57">down</stem>
        <beam number="1">continue</beam>
      </note>
      <note default-x="172">
        <pitch>
          <step>A</step>
          <octave>4</octave>
        </pitch>
        <duration>8</duration>
        <voice>1</voice>
        <type>eighth</type>
        <time-modification>
          <actual-notes>3</actual-notes>
          <normal-notes>2</normal-notes>
        </time-modification>
        <stem default-y="-60">down</stem>
        <beam number="1">end</beam>
        <notations>
          <tuplet number="1" type="stop"/>
        </notations>
      </note>
    </measure>
    <!--=======================================================-->
    <measure number="9" width="185">
      <harmony default-y="40" font-size="15.4">
        <root>
          <root-step>G</root-step>
        </root>
        <kind halign="center" text="7">dominant</kind>
      </harmony>
      <note default-x="14">
        <pitch>
          <step>B</step>
          <octave>4</octave>
        </pitch>
        <duration>48</duration>
        <voice>1</voice>
        <type>half</type>
        <stem default-y="-55.5">down</stem>
      </note>
      <note default-x="82">
        <pitch>
          <step>B</step>
          <octave>4</octave>
        </pitch>
        <duration>12</duration>
        <voice>1</voice>
        <type>eighth</type>
        <stem default-y="-55">down</stem>
        <beam number="1">begin</beam>
      </note>
      <note default-x="108">
        <pitch>
          <step>C</step>
          <alter>1</alter>
          <octave>5</octave>
        </pitch>
        <duration>12</duration>
        <tie type="start"/>
        <voice>1</voice>
        <type>eighth</type>
        <stem default-y="-50">down</stem>
        <beam number="1">end</beam>
        <notations>
          <tied type="start"/>
        </notations>
      </note>
      <note default-x="142">
        <pitch>
          <step>C</step>
          <alter>1</alter>
          <octave>5</octave>
        </pitch>
        <duration>24</duration>
        <tie type="stop"/>
        <tie type="start"/>
        <voice>1</voice>
        <type>quarter</type>
        <stem default-y="-50.5">down</stem>
        <notations>
          <tied type="stop"/>
          <tied type="start"/>
        </notations>
      </note>
    </measure>
    <!--=======================================================-->
    <measure number="10" width="121">
      <harmony default-y="40" font-size="15.4">
        <root>
          <root-step>A</root-step>
        </root>
        <kind halign="center" text="7">dominant</kind>
      </harmony>
      <note default-x="13">
        <pitch>
          <step>C</step>
          <alter>1</alter>
          <octave>5</octave>
        </pitch>
        <duration>96</duration>
        <tie type="stop"/>
        <voice>1</voice>
        <type>whole</type>
        <notations>
          <tied type="stop"/>
        </notations>
      </note>
    </measure>
    <!--=======================================================-->
    <measure number="11" width="189">
      <harmony default-y="40" font-size="15.4">
        <root>
          <root-step>C</root-step>
        </root>
        <kind halign="center" text="">major</kind>
        <bass>
          <bass-step>D</bass-step>
        </bass>
      </harmony>
      <note default-x="15">
        <pitch>
          <step>E</step>
          <octave>5</octave>
        </pitch>
        <duration>36</duration>
        <voice>1</voice>
        <type>quarter</type>
        <dot/>
        <stem default-y="-41">down</stem>
      </note>
      <note default-x="69">
        <pitch>
          <step>F</step>
          <alter>1</alter>
          <octave>5</octave>
        </pitch>
        <duration>12</duration>
        <tie type="start"/>
        <voice>1</voice>
        <type>eighth</type>
        <stem default-y="-35.5">down</stem>
        <notations>
          <tied type="start"/>
        </notations>
      </note>
      <harmony default-y="40" font-size="15.4">
        <root>
          <root-step>D</root-step>
        </root>
        <kind halign="center" text="7">dominant</kind>
      </harmony>
      <note default-x="103">
        <pitch>
          <step>F</step>
          <alter>1</alter>
          <octave>5</octave>
        </pitch>
        <duration>24</duration>
        <tie type="stop"/>
        <voice>1</voice>
        <type>quarter</type>
        <stem default-y="-35.5">down</stem>
        <notations>
          <tied type="stop"/>
        </notations>
      </note>
      <note default-x="145">
        <pitch>
          <step>G</step>
          <octave>5</octave>
        </pitch>
        <duration>24</duration>
        <tie type="start"/>
        <voice>1</voice>
        <type>quarter</type>
        <stem default-y="-30.5">down</stem>
        <notations>
          <tied type="start"/>
        </notations>
      </note>
    </measure>
    <!--=======================================================-->
    <measure number="12" width="262">
      <print new-system="yes">
        <system-layout>
          <system-distance>114</system-distance>
        </system-layout>
      </print>
      <harmony default-y="40" font-size="15.4">
        <root>
          <root-step>C</root-step>
        </root>
        <kind halign="center" text="9">dominant-ninth</kind>
      </harmony>
      <note default-x="94">
        <pitch>
          <step>G</step>
          <octave>5</octave>
        </pitch>
        <duration>12</duration>
        <tie type="stop"/>
        <voice>1</voice>
        <type>eighth</type>
        <stem default-y="-25">down</stem>
        <beam number="1">begin</beam>
        <notations>
          <tied type="stop"/>
        </notations>
      </note>
      <note default-x="117">
        <pitch>
          <step>A</step>
          <octave>5</octave>
        </pitch>
        <duration>12</duration>
        <tie type="start"/>
        <voice>1</voice>
        <type>eighth</type>
        <stem default-y="-23">down</stem>
        <beam number="1">end</beam>
        <notations>
          <tied type="start"/>
        </notations>
      </note>
      <note default-x="158">
        <pitch>
          <step>A</step>
          <octave>5</octave>
        </pitch>
        <duration>24</duration>
        <tie type="stop"/>
        <tie type="start"/>
        <voice>1</voice>
        <type>quarter</type>
        <stem default-y="-25.5">down</stem>
        <notations>
          <tied type="stop"/>
          <tied type="start"/>
        </notations>
      </note>
      <harmony default-y="40" font-size="15.4">
        <root>
          <root-step>D</root-step>
        </root>
        <kind halign="center" text="9">dominant-ninth</kind>
      </harmony>
      <note default-x="200">
        <pitch>
          <step>A</step>
          <octave>5</octave>
        </pitch>
        <duration>48</duration>
        <tie type="stop"/>
        <voice>1</voice>
        <type>half</type>
        <stem default-y="-25.5">down</stem>
        <notations>
          <tied type="stop"/>
        </notations>
      </note>
    </measure>
    <!--=======================================================-->
    <measure number="13" width="115">
      <harmony default-y="40" font-size="15.4">
        <root>
          <root-step>G</root-step>
        </root>
        <kind halign="center" text="maj7">major-seventh</kind>
      </harmony>
      <note default-x="17">
        <pitch>
          <step>B</step>
          <octave>5</octave>
        </pitch>
        <duration>96</duration>
        <voice>1</voice>
        <type>whole</type>
      </note>
    </measure>
    <!--=======================================================-->
    <measure number="14" width="153">
      <harmony default-y="40" font-size="15.4">
        <root>
          <root-step>F</root-step>
          <root-alter>1</root-alter>
        </root>
        <kind halign="center" text="min7">minor-seventh</kind>
      </harmony>
      <note default-x="17">
        <pitch>
          <step>B</step>
          <octave>5</octave>
        </pitch>
        <duration>12</duration>
        <voice>1</voice>
        <type>eighth</type>
        <stem default-y="-21">down</stem>
      </note>
      <note default-x="43">
        <pitch>
          <step>C</step>
          <alter>1</alter>
          <octave>6</octave>
        </pitch>
        <duration>36</duration>
        <tie type="start"/>
        <voice>1</voice>
        <type>quarter</type>
        <dot/>
        <stem default-y="-21">down</stem>
        <notations>
          <tied type="start"/>
        </notations>
      </note>
      <harmony default-y="40" font-size="15.4">
        <root>
          <root-step>B</root-step>
        </root>
        <kind halign="center" text="7">dominant</kind>
      </harmony>
      <note default-x="91">
        <pitch>
          <step>C</step>
          <alter>1</alter>
          <octave>6</octave>
        </pitch>
        <duration>48</duration>
        <tie type="stop"/>
        <voice>1</voice>
        <type>half</type>
        <stem default-y="-21">down</stem>
        <notations>
          <tied type="stop"/>
        </notations>
      </note>
    </measure>
    <!--=======================================================-->
    <measure number="15" width="229">
      <harmony default-y="40" font-size="15.4">
        <root>
          <root-step>E</root-step>
        </root>
        <kind halign="center" text="7">dominant</kind>
      </harmony>
      <note default-x="17">
        <pitch>
          <step>D</step>
          <octave>6</octave>
        </pitch>
        <duration>12</duration>
        <voice>1</voice>
        <type>eighth</type>
        <stem default-y="-20">down</stem>
        <beam number="1">begin</beam>
      </note>
      <note default-x="44">
        <pitch>
          <step>C</step>
          <alter>1</alter>
          <octave>6</octave>
        </pitch>
        <duration>12</duration>
        <voice>1</voice>
        <type>eighth</type>
        <stem default-y="-21">down</stem>
        <beam number="1">continue</beam>
      </note>
      <note default-x="71">
        <pitch>
          <step>B</step>
          <octave>5</octave>
        </pitch>
        <duration>12</duration>
        <voice>1</voice>
        <type>eighth</type>
        <stem default-y="-21">down</stem>
        <beam number="1">continue</beam>
      </note>
      <note default-x="106">
        <pitch>
          <step>G</step>
          <alter>1</alter>
          <octave>5</octave>
        </pitch>
        <duration>12</duration>
        <voice>1</voice>
        <type>eighth</type>
        <accidental>sharp</accidental>
        <stem default-y="-23">down</stem>
        <beam number="1">end</beam>
      </note>
      <note default-x="130">
        <pitch>
          <step>B</step>
          <octave>5</octave>
        </pitch>
        <duration>12</duration>
        <voice>1</voice>
        <type>eighth</type>
        <stem default-y="-21">down</stem>
      </note>
      <note default-x="157">
        <pitch>
          <step>C</step>
          <alter>1</alter>
          <octave>6</octave>
        </pitch>
        <duration>24</duration>
        <voice>1</voice>
        <type>quarter</type>
        <stem default-y="-21">down</stem>
      </note>
      <note default-x="195">
        <pitch>
          <step>F</step>
          <alter>1</alter>
          <octave>5</octave>
        </pitch>
        <duration>12</duration>
        <tie type="start"/>
        <voice>1</voice>
        <type>eighth</type>
        <stem default-y="-36">down</stem>
        <notations>
          <tied type="start"/>
        </notations>
      </note>
    </measure>
    <!--=======================================================-->
    <measure number="16" width="111">
      <harmony default-y="40" font-size="15.4">
        <root>
          <root-step>B</root-step>
        </root>
        <kind halign="center" text="min11">minor-11th</kind>
      </harmony>
      <note default-x="14">
        <pitch>
          <step>F</step>
          <alter>1</alter>
          <octave>5</octave>
        </pitch>
        <duration>96</duration>
        <tie type="stop"/>
        <voice>1</voice>
        <type>whole</type>
        <notations>
          <tied type="stop"/>
        </notations>
      </note>
    </measure>
    <!--=======================================================-->
    <measure number="17" width="114">
      <harmony default-y="40" font-size="15.4">
        <root>
          <root-step>G</root-step>
        </root>
        <kind halign="center" text="maj13">major-13th</kind>
      </harmony>
      <note default-x="17">
        <pitch>
          <step>B</step>
          <octave>5</octave>
        </pitch>
        <duration>96</duration>
        <voice>1</voice>
        <type>whole</type>
      </note>
    </measure>
    <!--=======================================================-->
    <measure number="18" width="353">
      <print new-system="yes">
        <system-layout>
          <system-distance>114</system-distance>
        </system-layout>
      </print>
      <harmony default-y="40" font-size="15.4">
        <root>
          <root-step>E</root-step>
        </root>
        <kind halign="center" parentheses-degrees="yes" text="7">dominant</kind>
        <degree>
          <degree-value>5</degree-value>
          <degree-alter>1</degree-alter>
          <degree-type>alter</degree-type>
        </degree>
      </harmony>
      <note default-x="105">
        <pitch>
          <step>G</step>
          <alter>1</alter>
          <octave>5</octave>
        </pitch>
        <duration>12</duration>
        <voice>1</voice>
        <type>eighth</type>
        <accidental>sharp</accidental>
        <stem default-y="-31">down</stem>
      </note>
      <note default-x="156">
        <pitch>
          <step>B</step>
          <octave>4</octave>
        </pitch>
        <duration>84</duration>
        <voice>1</voice>
        <type>half</type>
        <dot/>
        <dot/>
        <stem default-y="-56">down</stem>
      </note>
    </measure>
    <!--=======================================================-->
    <measure number="19" width="412">
      <harmony default-y="40" font-size="15.4">
        <root>
          <root-step>D</root-step>
        </root>
        <kind halign="center" text="7">dominant</kind>
      </harmony>
      <note default-x="14">
        <pitch>
          <step>D</step>
          <octave>5</octave>
        </pitch>
        <duration>12</duration>
        <voice>1</voice>
        <type>eighth</type>
        <stem default-y="-55">down</stem>
        <beam number="1">begin</beam>
      </note>
      <note default-x="63">
        <pitch>
          <step>B</step>
          <octave>4</octave>
        </pitch>
        <duration>12</duration>
        <voice>1</voice>
        <type>eighth</type>
        <stem default-y="-55">down</stem>
        <beam number="1">continue</beam>
      </note>
      <note default-x="113">
        <pitch>
          <step>E</step>
          <octave>5</octave>
        </pitch>
        <duration>12</duration>
        <voice>1</voice>
        <type>eighth</type>
        <stem default-y="-55">down</stem>
        <beam number="1">continue</beam>
      </note>
      <note default-x="162">
        <pitch>
          <step>D</step>
          <octave>5</octave>
        </pitch>
        <duration>12</duration>
        <voice>1</voice>
        <type>eighth</type>
        <stem default-y="-55">down</stem>
        <beam number="1">end</beam>
      </note>
      <note default-x="212">
        <rest/>
        <duration>12</duration>
        <voice>1</voice>
        <type>eighth</type>
      </note>
      <harmony default-y="40" font-size="15.4">
        <root>
          <root-step>C</root-step>
        </root>
        <kind halign="center" text="maj7">major-seventh</kind>
      </harmony>
      <note default-x="262">
        <pitch>
          <step>B</step>
          <octave>4</octave>
        </pitch>
        <duration>12</duration>
        <voice>1</voice>
        <type>eighth</type>
        <stem default-y="15">up</stem>
        <beam number="1">begin</beam>
      </note>
      <note default-x="311">
        <pitch>
          <step>A</step>
          <octave>4</octave>
        </pitch>
        <duration>12</duration>
        <voice>1</voice>
        <type>eighth</type>
        <stem default-y="15">up</stem>
        <beam number="1">continue</beam>
      </note>
      <note default-x="361">
        <pitch>
          <step>B</step>
          <octave>4</octave>
        </pitch>
        <duration>12</duration>
        <tie type="start"/>
        <voice>1</voice>
        <type>eighth</type>
        <stem default-y="15">up</stem>
        <beam number="1">end</beam>
        <notations>
          <tied type="start"/>
        </notations>
      </note>
    </measure>
    <!--=======================================================-->
    <measure number="20" width="218">
      <harmony default-y="40" font-size="15.4">
        <root>
          <root-step>B</root-step>
        </root>
        <kind halign="center" text="min13">minor-13th</kind>
      </harmony>
      <note default-x="13">
        <pitch>
          <step>B</step>
          <octave>4</octave>
        </pitch>
        <duration>96</duration>
        <tie type="stop"/>
        <voice>1</voice>
        <type>whole</type>
        <notations>
          <tied type="stop"/>
        </notations>
      </note>
      <barline location="right">
        <bar-style>light-heavy</bar-style>
      </barline>
    </measure>
  </part>
  <!--=========================================================-->
</score-partwise>
